<svg width="500" height="500" viewBox="0 0 500 500" fill="none" xmlns="http://www.w3.org/2000/svg">
<path d="M250 0C182.156 0 173.625 0.3125 146.969 1.5C120.313 2.75 102.156 6.9375 86.25 13.125C69.5576 19.3852 54.4419 29.2312 41.9688 41.9688C29.2312 54.4419 19.3852 69.5576 13.125 86.25C6.9375 102.125 2.71875 120.312 1.5 146.875C0.3125 173.594 0 182.094 0 250.031C0 317.906 0.3125 326.406 1.5 353.063C2.75 379.688 6.9375 397.844 13.125 413.75C19.5312 430.187 28.0625 444.125 41.9688 458.031C55.8438 471.937 69.7813 480.5 86.2188 486.875C102.156 493.062 120.281 497.281 146.906 498.5C173.594 499.687 182.094 500 250 500C317.906 500 326.375 499.687 353.063 498.5C379.656 497.25 397.875 493.062 413.781 486.875C430.462 480.611 445.567 470.765 458.031 458.031C471.937 444.125 480.469 430.187 486.875 413.75C493.031 397.844 497.25 379.688 498.5 353.063C499.687 326.406 500 317.906 500 250C500 182.094 499.687 173.594 498.5 146.906C497.25 120.313 493.031 102.125 486.875 86.25C480.615 69.5576 470.769 54.4419 458.031 41.9688C445.558 29.2312 430.442 19.3852 413.75 13.125C397.812 6.9375 379.625 2.71875 353.031 1.5C326.344 0.3125 317.875 0 249.938 0H250ZM227.594 45.0625H250.031C316.781 45.0625 324.687 45.2813 351.031 46.5C375.406 47.5938 388.656 51.6875 397.469 55.0938C409.125 59.625 417.469 65.0625 426.219 73.8125C434.969 82.5625 440.375 90.875 444.906 102.563C448.344 111.344 452.406 124.594 453.5 148.969C454.719 175.313 454.969 183.219 454.969 249.938C454.969 316.656 454.719 324.594 453.5 350.937C452.406 375.312 448.313 388.531 444.906 397.344C440.87 408.184 434.476 417.993 426.187 426.062C417.437 434.812 409.125 440.219 397.438 444.75C388.688 448.188 375.437 452.25 351.031 453.375C324.687 454.563 316.781 454.844 250.031 454.844C183.281 454.844 175.344 454.563 149 453.375C124.625 452.25 111.406 448.188 102.594 444.75C91.7448 440.727 81.9249 434.344 73.8437 426.062C65.5398 417.988 59.1353 408.167 55.0938 397.312C51.6875 388.531 47.5938 375.281 46.5 350.906C45.3125 324.563 45.0625 316.656 45.0625 249.875C45.0625 183.094 45.3125 175.25 46.5 148.906C47.625 124.531 51.6875 111.281 55.125 102.469C59.6563 90.8125 65.0937 82.4687 73.8437 73.7187C82.5937 64.9687 90.9062 59.5625 102.594 55.0313C111.406 51.5938 124.625 47.5313 149 46.4063C172.063 45.3438 181 45.0313 227.594 45V45.0625ZM383.469 86.5625C379.529 86.5625 375.628 87.3385 371.988 88.8461C368.348 90.3538 365.041 92.5635 362.256 95.3493C359.47 98.1351 357.26 101.442 355.752 105.082C354.245 108.722 353.469 112.623 353.469 116.563C353.469 120.502 354.245 124.403 355.752 128.043C357.26 131.683 359.47 134.99 362.256 137.776C365.041 140.561 368.348 142.771 371.988 144.279C375.628 145.787 379.529 146.563 383.469 146.563C391.425 146.563 399.056 143.402 404.682 137.776C410.308 132.15 413.469 124.519 413.469 116.563C413.469 108.606 410.308 100.975 404.682 95.3493C399.056 89.7232 391.425 86.5625 383.469 86.5625ZM250.031 121.625C233.002 121.359 216.09 124.484 200.281 130.817C184.471 137.15 170.079 146.565 157.942 158.513C145.806 170.462 136.168 184.705 129.589 200.414C123.01 216.124 119.622 232.985 119.622 250.016C119.622 267.047 123.01 283.908 129.589 299.617C136.168 315.326 145.806 329.569 157.942 341.518C170.079 353.467 184.471 362.881 200.281 369.214C216.09 375.547 233.002 378.672 250.031 378.406C283.736 377.88 315.882 364.122 339.531 340.102C363.179 316.081 376.434 283.724 376.434 250.016C376.434 216.307 363.179 183.95 339.531 159.93C315.882 135.909 283.736 122.151 250.031 121.625ZM250.031 166.656C260.976 166.656 271.814 168.812 281.926 173C292.037 177.189 301.225 183.328 308.964 191.067C316.703 198.806 322.842 207.994 327.031 218.106C331.219 228.217 333.375 239.055 333.375 250C333.375 260.945 331.219 271.783 327.031 281.894C322.842 292.006 316.703 301.194 308.964 308.933C301.225 316.672 292.037 322.811 281.926 327C271.814 331.188 260.976 333.344 250.031 333.344C227.927 333.344 206.728 324.563 191.098 308.933C175.468 293.303 166.688 272.104 166.688 250C166.688 227.896 175.468 206.697 191.098 191.067C206.728 175.437 227.927 166.656 250.031 166.656Z" fill="white"/>
</svg>
