<svg width="500" height="500" viewBox="0 0 500 500" fill="none" xmlns="http://www.w3.org/2000/svg">
<g clip-path="url(#clip0_14_2)">
<path d="M0 35.8125C0 16.0313 16.4375 0 36.7187 0H463.281C483.562 0 500 16.0313 500 35.8125V464.188C500 483.969 483.562 500 463.281 500H36.7187C16.4375 500 0 483.969 0 464.188V35.8125ZM154.469 418.563V192.781H79.4375V418.563H154.469ZM116.969 161.938C143.125 161.938 159.406 144.625 159.406 122.938C158.937 100.781 143.156 83.9375 117.469 83.9375C91.7813 83.9375 75 100.813 75 122.938C75 144.625 91.2813 161.938 116.469 161.938H116.969ZM270.344 418.563V292.469C270.344 285.719 270.844 278.969 272.844 274.156C278.25 260.687 290.594 246.719 311.344 246.719C338.5 246.719 349.344 267.406 349.344 297.781V418.563H424.375V289.062C424.375 219.687 387.375 187.438 338 187.438C298.187 187.438 280.344 209.312 270.344 224.719V225.5H269.844L270.344 224.719V192.781H195.344C196.281 213.969 195.344 418.563 195.344 418.563H270.344Z" fill="white"/>
</g>
<defs>
<clipPath id="clip0_14_2">
<rect width="500" height="500" fill="white"/>
</clipPath>
</defs>
</svg>
