<svg width="500" height="282" viewBox="0 0 500 282" fill="none" xmlns="http://www.w3.org/2000/svg">
<path d="M282.031 140.625C282.031 218.281 218.906 281.25 141 281.25C122.508 281.275 104.193 277.657 87.0991 270.603C70.0055 263.55 54.4686 253.198 41.3756 240.14C28.2825 227.082 17.8897 211.572 10.7904 194.498C3.6912 177.423 0.0246065 159.117 0 140.625C0 62.9377 63.125 0.000170121 141 0.000170121C159.494 -0.028577 177.813 3.58622 194.91 10.6381C212.008 17.69 227.548 28.0409 240.645 41.0995C253.741 54.1582 264.137 69.6688 271.238 86.7456C278.339 103.822 282.007 122.131 282.031 140.625ZM436.719 140.625C436.719 213.75 405.156 273 366.219 273C327.281 273 295.719 213.719 295.719 140.625C295.719 67.5002 327.281 8.25017 366.219 8.25017C405.156 8.25017 436.719 67.5314 436.719 140.625ZM500 140.625C500 206.125 488.906 259.219 475.188 259.219C461.5 259.219 450.406 206.094 450.406 140.625C450.406 75.1252 461.5 22.0314 475.219 22.0314C488.906 22.0314 500 75.1252 500 140.625Z" fill="white"/>
</svg>
