<svg width="501" height="355" viewBox="0 0 501 355" fill="none" xmlns="http://www.w3.org/2000/svg">
<path d="M386.719 201.328C363.766 201.328 342.203 191.641 322.672 175.781L327.391 153.406L327.547 152.516C331.859 128.75 345.203 88.7969 386.703 88.7969C417.797 88.7969 443.016 114.031 443.016 145.109C443.016 176.109 417.781 201.344 386.703 201.344L386.719 201.328ZM386.719 31.8125C333.828 31.8125 292.719 66.1562 276.047 122.719C250.656 84.5469 231.281 38.6562 220.062 0H163.094V148.187C163.016 177.484 139.328 201.172 110.031 201.25C80.7344 201.172 57.0469 177.406 56.9687 148.187V0H0V148.187C0 208.891 49.3906 258.625 110.031 258.625C170.734 258.625 220.062 208.906 220.062 148.187V123.359C231.125 146.391 244.719 169.828 261.234 190.5L226.328 354.484H284.594L309.906 235.5C332.047 249.656 357.516 258.609 386.734 258.609C449.234 258.609 500.016 207.5 500.016 145.078C500.016 82.5781 449.234 31.7969 386.734 31.7969L386.719 31.8125Z" fill="white"/>
</svg>
