<svg width="429" height="500" viewBox="0 0 429 500" fill="none" xmlns="http://www.w3.org/2000/svg">
<path d="M81.9843 164.873H346.943V380.786C346.943 393.613 336.544 404.012 323.733 404.012H297.194V469.768C297.194 486.467 283.875 500 267.433 500C250.95 500 237.651 486.467 237.651 469.768V404.012H191.299V469.768C191.299 486.467 177.954 500 161.514 500C145.076 500 131.732 486.467 131.732 469.768V404.012H105.216C92.4021 404.012 81.9833 393.613 81.9833 380.786L81.9843 164.873ZM30.0616 163.111C13.453 163.111 0 176.773 0 193.639V312.951C0 329.798 13.453 343.483 30.0616 343.483C46.6732 343.483 60.1232 329.798 60.1232 312.951V193.639C60.1232 176.773 46.6732 163.111 30.0616 163.111ZM346.944 143.116H81.9843C85.2543 105.368 109.741 72.8849 144.99 54.0767L119.798 17.0865C116.401 12.0982 117.683 5.29195 122.681 1.89567C127.673 -1.50061 134.466 -0.209025 137.88 4.77532L165.336 45.1197C180.56 39.8555 197.084 36.833 214.464 36.833C231.864 36.833 248.389 39.8555 263.611 45.1266L291.068 4.78999C294.44 -0.208047 301.254 -1.49963 306.246 1.89665C311.244 5.29293 312.526 12.0992 309.129 17.0874L283.958 54.0776C319.206 72.8741 343.676 105.357 346.944 143.116ZM173.236 91.8252C173.236 83.7302 166.681 77.1647 158.589 77.1647C150.476 77.1647 143.922 83.7302 143.922 91.8252C143.922 99.9161 150.498 106.479 158.589 106.479C166.68 106.479 173.236 99.9161 173.236 91.8252ZM286.863 91.8252C286.863 83.7302 280.286 77.1647 272.196 77.1647C264.083 77.1647 257.548 83.7302 257.548 91.8252C257.548 99.9161 264.083 106.479 272.196 106.479C280.287 106.479 286.863 99.9161 286.863 91.8252ZM398.886 163.069C382.295 163.069 368.804 176.752 368.804 193.619V312.973C368.804 329.84 382.295 343.527 398.886 343.527C415.499 343.527 428.926 329.841 428.926 312.973V193.619C428.927 176.752 415.499 163.069 398.886 163.069Z" fill="white"/>
</svg>
