<svg width="556" height="500" viewBox="0 0 556 500" fill="none" xmlns="http://www.w3.org/2000/svg">
<path fill-rule="evenodd" clip-rule="evenodd" d="M16.2719 16.2719C-1.65568e-06 32.5436 0 58.7328 0 111.111C0 163.489 -1.65568e-06 189.679 16.2719 205.95C32.5436 222.222 58.7328 222.222 111.111 222.222H444.445C496.822 222.222 523.011 222.222 539.283 205.95C555.556 189.679 555.556 163.489 555.556 111.111C555.556 58.7328 555.556 32.5436 539.283 16.2719C523.011 -1.65568e-06 496.822 0 444.445 0H111.111C58.7328 0 32.5436 -1.65568e-06 16.2719 16.2719ZM194.444 159.722C182.939 159.722 173.611 150.395 173.611 138.889V83.3333C173.611 71.8275 182.939 62.5 194.444 62.5C205.95 62.5 215.278 71.8275 215.278 83.3333V138.889C215.278 150.395 205.95 159.722 194.444 159.722ZM319.444 90.2778C307.939 90.2778 298.611 99.6053 298.611 111.111C298.611 122.617 307.939 131.944 319.444 131.944H444.445C455.95 131.944 465.278 122.617 465.278 111.111C465.278 99.6053 455.95 90.2778 444.445 90.2778H319.444ZM111.111 159.722C99.6053 159.722 90.2778 150.395 90.2778 138.889V83.3333C90.2778 71.8275 99.6053 62.5 111.111 62.5C122.617 62.5 131.944 71.8275 131.944 83.3333V138.889C131.944 150.395 122.617 159.722 111.111 159.722Z" fill="white"/>
<path fill-rule="evenodd" clip-rule="evenodd" d="M16.2719 294.05C-9.28508e-06 310.322 -7.62939e-06 336.511 -7.62939e-06 388.889C-7.62939e-06 441.267 -9.28508e-06 467.456 16.2719 483.728C32.5436 500 58.7328 500 111.111 500H444.445C496.822 500 523.011 500 539.283 483.728C555.556 467.456 555.556 441.267 555.556 388.889C555.556 336.511 555.556 310.322 539.283 294.05C523.011 277.778 496.822 277.778 444.445 277.778H111.111C58.7328 277.778 32.5436 277.778 16.2719 294.05ZM298.611 388.889C298.611 377.383 307.939 368.056 319.444 368.056H444.445C455.95 368.056 465.278 377.383 465.278 388.889C465.278 400.395 455.95 409.722 444.445 409.722H319.444C307.939 409.722 298.611 400.395 298.611 388.889ZM90.2778 416.667C90.2778 428.172 99.6053 437.5 111.111 437.5C122.617 437.5 131.944 428.172 131.944 416.667V361.111C131.944 349.606 122.617 340.278 111.111 340.278C99.6053 340.278 90.2778 349.606 90.2778 361.111V416.667ZM194.444 437.5C182.939 437.5 173.611 428.172 173.611 416.667V361.111C173.611 349.606 182.939 340.278 194.444 340.278C205.95 340.278 215.278 349.606 215.278 361.111V416.667C215.278 428.172 205.95 437.5 194.444 437.5Z" fill="white"/>
</svg>
