<svg width="425" height="500" viewBox="0 0 425 500" fill="none" xmlns="http://www.w3.org/2000/svg">
<path fill-rule="evenodd" clip-rule="evenodd" d="M289.275 79.8225C307.502 58.6976 319.788 29.2748 316.426 0C290.16 1.00001 258.382 16.7788 239.549 37.8788C222.636 56.6037 207.873 86.5232 211.842 115.223C241.141 117.398 271.048 100.972 289.275 79.8225ZM354.978 265.627C355.711 341.302 424.245 366.475 425.004 366.8C424.448 368.575 414.058 402.669 388.904 437.919C367.138 468.369 344.562 498.695 308.993 499.345C274.056 499.97 262.807 479.497 222.839 479.497C182.896 479.497 170.408 498.693 137.341 499.968C103.011 501.193 76.8458 467.024 54.9279 436.674C10.081 374.599 -24.1736 261.255 21.8363 184.755C44.6895 146.78 85.5169 122.696 129.858 122.096C163.557 121.471 195.384 143.825 215.988 143.825C236.591 143.825 275.27 116.95 315.92 120.9C332.934 121.575 380.713 127.473 411.378 170.497C408.9 171.972 354.371 202.378 354.978 265.627Z" fill="white"/>
</svg>
