<svg width="500" height="500" viewBox="0 0 500 500" fill="none" xmlns="http://www.w3.org/2000/svg">
<path d="M74.1101 0L0 74.1101L27.8232 101.882L64.8527 64.8527L83.3674 83.3674L46.338 120.397L83.3674 157.426L120.397 120.397L138.912 138.912L101.882 175.941L138.912 212.971L212.971 138.912L74.1101 0ZM414.536 11.4055L344.722 81.2193L418.781 155.278L488.595 85.4644C478.562 71.3587 467.541 57.7617 454.89 45.1105C442.239 32.4595 428.641 21.4383 414.536 11.4055ZM307.692 118.249L29.9202 396.021L11.4055 488.595L103.979 470.08L381.751 192.308L307.692 118.249ZM361.088 287.029L287.029 361.088L324.059 398.118L361.088 361.088L379.603 379.603L342.574 416.633L379.603 453.662L416.633 416.633L435.147 435.147L398.118 472.177L425.89 500L500 425.89L361.088 287.029Z" fill="white"/>
</svg>
