<svg width="542" height="500" viewBox="0 0 542 500" fill="none" xmlns="http://www.w3.org/2000/svg">
<path d="M364.606 433.533C361.802 431.827 359.358 429.539 357.416 426.767C356.519 425.488 355.761 424.136 355.133 422.739H36.4509V108.629H469.016V313.732C478.251 314.566 485.999 320.631 489.252 328.936C492.133 327.357 495.343 326.382 498.718 326.084C501 325.885 503.267 326.027 505.466 326.462V30.3766C505.466 13.6269 491.842 0 475.093 0H30.3754C13.6269 0 0 13.6269 0 30.3766V428.816C0 445.566 13.6269 459.191 30.3754 459.191H361.838C359.251 453.954 358.638 448.04 360.16 442.351C361.037 439.079 362.556 436.094 364.606 433.533ZM435.66 51.0084C435.66 44.8142 440.681 39.7916 446.875 39.7916H458.091C464.286 39.7916 469.306 44.8129 469.306 51.0084V63.7202C469.306 69.9144 464.285 74.9357 458.091 74.9357H446.875C440.68 74.9357 435.66 69.9144 435.66 63.7202V51.0084ZM383.507 51.0084C383.507 44.8142 388.528 39.7916 394.722 39.7916H405.939C412.135 39.7916 417.155 44.8129 417.155 51.0084V63.7202C417.155 69.9144 412.133 74.9357 405.939 74.9357H394.722C388.528 74.9357 383.507 69.9144 383.507 63.7202V51.0084ZM331.353 51.0084C331.353 44.8142 336.375 39.7916 342.568 39.7916H353.784C359.979 39.7916 365.001 44.8129 365.001 51.0084V63.7202C365.001 69.9144 359.979 74.9357 353.784 74.9357H342.568C336.375 74.9357 331.353 69.9144 331.353 63.7202V51.0084Z" fill="white"/>
<path d="M541.151 412.142L537.781 393.029C537.326 390.455 534.873 388.736 532.297 389.189L515.3 392.185C513.26 387.397 510.654 382.912 507.56 378.807L518.662 365.573C519.469 364.614 519.862 363.37 519.754 362.119C519.643 360.867 519.04 359.712 518.079 358.904L503.213 346.428C502.252 345.622 501.005 345.23 499.755 345.339C498.504 345.449 497.349 346.051 496.542 347.012L485.45 360.236C480.897 357.916 476.026 356.127 470.924 354.946V337.686C470.924 335.072 468.804 332.951 466.19 332.951H446.78C444.167 332.951 442.046 335.072 442.046 337.686V354.946C436.941 356.126 432.076 357.916 427.52 360.236L416.425 347.013C414.745 345.011 411.76 344.75 409.755 346.43L394.889 358.904C393.927 359.712 393.325 360.867 393.215 362.119C393.106 363.37 393.498 364.615 394.305 365.577L405.408 378.808C402.32 382.912 399.709 387.399 397.669 392.186L380.671 389.189C378.102 388.737 375.644 390.455 375.188 393.029L371.818 412.142C371.601 413.378 371.883 414.649 372.601 415.679C373.324 416.709 374.418 417.409 375.655 417.626L392.665 420.624C392.943 425.894 393.86 430.993 395.337 435.848L380.387 444.477C379.299 445.102 378.506 446.138 378.18 447.35C377.855 448.562 378.027 449.854 378.653 450.942L388.357 467.749C388.982 468.837 390.018 469.63 391.23 469.955C391.633 470.063 392.044 470.116 392.455 470.116C393.279 470.116 394.095 469.902 394.822 469.482L409.784 460.842C413.302 464.612 417.275 467.953 421.615 470.778L415.707 487.008C415.279 488.189 415.335 489.491 415.866 490.629C416.397 491.767 417.357 492.647 418.536 493.075L436.771 499.711C437.294 499.902 437.843 500 438.391 500C439.074 500 439.761 499.852 440.394 499.555C441.532 499.026 442.409 498.064 442.839 496.884L448.745 480.653C451.278 480.96 453.856 481.118 456.471 481.118C459.086 481.118 461.663 480.957 464.196 480.653L470.104 496.884C470.532 498.064 471.414 499.026 472.549 499.555C473.181 499.85 473.865 500 474.552 500C475.098 500 475.647 499.905 476.171 499.711L494.408 493.075C495.584 492.647 496.546 491.764 497.076 490.629C497.607 489.491 497.663 488.189 497.234 487.008L491.326 470.781C495.663 467.956 499.635 464.612 503.158 460.845L518.12 469.484C518.845 469.902 519.663 470.118 520.486 470.118C520.896 470.118 521.311 470.063 521.712 469.957C522.925 469.632 523.958 468.837 524.585 467.752L534.288 450.942C534.915 449.856 535.086 448.562 534.761 447.35C534.435 446.141 533.643 445.104 532.555 444.477L517.607 435.851C519.084 430.994 519.999 425.896 520.276 420.627L537.286 417.628C538.523 417.41 539.621 416.71 540.341 415.68C541.087 414.649 541.369 413.378 541.151 412.142ZM456.486 442.515C442.109 442.515 430.452 430.858 430.452 416.479C430.452 402.101 442.11 390.445 456.486 390.445C470.864 390.445 482.522 402.101 482.522 416.479C482.522 430.858 470.864 442.515 456.486 442.515Z" fill="white"/>
<path d="M212.265 282.747C212.265 276.622 208.676 270.996 203.12 268.416L152.269 244.789L203.121 221.16C208.676 218.577 212.265 212.952 212.265 206.83V206.419C212.265 200.993 209.534 196.012 204.964 193.1C202.435 191.485 199.49 190.631 196.45 190.631C194.158 190.631 191.858 191.135 189.8 192.091L108.502 229.897C102.949 232.479 99.3618 238.104 99.3618 244.225V245.355C99.3618 251.468 102.947 257.089 108.503 259.684L189.809 297.494C191.911 298.467 194.149 298.96 196.462 298.96C199.475 298.96 202.411 298.105 204.964 296.481C209.537 293.558 212.267 288.58 212.267 283.16L212.265 282.747Z" fill="white"/>
<path d="M292.479 152.109C289.513 148.049 284.743 145.626 279.718 145.626H279.313C272.413 145.626 266.363 150.04 264.261 156.602L210.697 322.568C209.172 327.36 210.031 332.638 212.992 336.696C215.958 340.754 220.728 343.178 225.753 343.178H226.159C233.057 343.178 239.103 338.762 241.202 332.202L294.76 166.249C296.299 161.461 295.446 156.175 292.479 152.109Z" fill="white"/>
<path d="M396.964 229.895L315.665 192.09C313.613 191.136 311.317 190.632 309.025 190.632C305.986 190.632 303.04 191.484 300.512 193.096C295.934 196.013 293.203 200.993 293.203 206.419V206.83C293.203 212.947 296.79 218.573 302.35 221.166L353.2 244.79L302.349 268.416C296.793 270.996 293.203 276.622 293.203 282.747V283.16C293.203 288.58 295.934 293.556 300.51 296.482C303.054 298.103 305.992 298.96 309.009 298.96C311.319 298.96 313.555 298.467 315.672 297.49L396.974 259.68C402.525 257.091 406.109 251.469 406.109 245.356V244.226C406.105 238.104 402.519 232.479 396.964 229.895Z" fill="white"/>
</svg>
